<mxfile host="app.diagrams.net" modified="2024-02-02T18:22:45.280Z" agent="Mozilla/5.0 (Macintosh; Intel Mac OS X 10_15_7) AppleWebKit/537.36 (KHTML, like Gecko) Chrome/120.0.0.0 Safari/537.36" etag="CIZ_rBlmYO-cUWbRwg7C" version="23.1.1" type="github">
  <diagram name="Page-1" id="6YZ66OWvYnkXUZUU5NNv">
    <mxGraphModel dx="2952" dy="1102" grid="1" gridSize="10" guides="1" tooltips="1" connect="1" arrows="1" fold="1" page="1" pageScale="1" pageWidth="850" pageHeight="1100" math="0" shadow="0">
      <root>
        <mxCell id="0" />
        <mxCell id="1" parent="0" />
        <mxCell id="7XRd1GeePD71VBHBvDXW-1" value="AMC" style="swimlane;horizontal=0;whiteSpace=wrap;html=1;startSize=20;" vertex="1" parent="1">
          <mxGeometry x="20" y="330" width="800" height="480" as="geometry" />
        </mxCell>
        <mxCell id="7XRd1GeePD71VBHBvDXW-6" value="Zone 3" style="rounded=0;whiteSpace=wrap;html=1;" vertex="1" parent="7XRd1GeePD71VBHBvDXW-1">
          <mxGeometry x="650" width="130" height="50" as="geometry" />
        </mxCell>
        <mxCell id="7XRd1GeePD71VBHBvDXW-14" value="Ports" style="rounded=0;whiteSpace=wrap;html=1;" vertex="1" parent="7XRd1GeePD71VBHBvDXW-1">
          <mxGeometry x="20" y="250" width="40" height="70" as="geometry" />
        </mxCell>
        <mxCell id="7XRd1GeePD71VBHBvDXW-21" value="updates at 100 khz" style="text;whiteSpace=wrap;" vertex="1" parent="7XRd1GeePD71VBHBvDXW-1">
          <mxGeometry x="560" y="90" width="110" height="50" as="geometry" />
        </mxCell>
        <mxCell id="7XRd1GeePD71VBHBvDXW-2" value="Ramp Controller RTM?" style="swimlane;horizontal=0;whiteSpace=wrap;html=1;startSize=40;" vertex="1" parent="1">
          <mxGeometry x="20" y="70" width="800" height="240" as="geometry" />
        </mxCell>
        <mxCell id="7XRd1GeePD71VBHBvDXW-7" value="Zone 3" style="rounded=0;whiteSpace=wrap;html=1;" vertex="1" parent="7XRd1GeePD71VBHBvDXW-2">
          <mxGeometry x="650" y="190" width="130" height="50" as="geometry" />
        </mxCell>
        <mxCell id="7XRd1GeePD71VBHBvDXW-3" value="MCH" style="swimlane;horizontal=0;whiteSpace=wrap;html=1;startSize=40;" vertex="1" parent="1">
          <mxGeometry x="20" y="830" width="800" height="240" as="geometry" />
        </mxCell>
        <mxCell id="7XRd1GeePD71VBHBvDXW-5" value="" style="rounded=0;whiteSpace=wrap;html=1;" vertex="1" parent="1">
          <mxGeometry x="110" y="360" width="530" height="400" as="geometry" />
        </mxCell>
        <mxCell id="7XRd1GeePD71VBHBvDXW-13" style="edgeStyle=orthogonalEdgeStyle;rounded=0;orthogonalLoop=1;jettySize=auto;html=1;exitX=0.25;exitY=1;exitDx=0;exitDy=0;entryX=1;entryY=0.25;entryDx=0;entryDy=0;" edge="1" parent="1" source="7XRd1GeePD71VBHBvDXW-9" target="7XRd1GeePD71VBHBvDXW-11">
          <mxGeometry relative="1" as="geometry" />
        </mxCell>
        <mxCell id="7XRd1GeePD71VBHBvDXW-9" value="G Table" style="rounded=0;whiteSpace=wrap;html=1;" vertex="1" parent="1">
          <mxGeometry x="365" y="380" width="120" height="50" as="geometry" />
        </mxCell>
        <mxCell id="7XRd1GeePD71VBHBvDXW-11" value="PS" style="swimlane;whiteSpace=wrap;html=1;" vertex="1" parent="1">
          <mxGeometry x="120" y="370" width="200" height="200" as="geometry" />
        </mxCell>
        <mxCell id="7XRd1GeePD71VBHBvDXW-22" style="edgeStyle=orthogonalEdgeStyle;rounded=0;orthogonalLoop=1;jettySize=auto;html=1;exitX=0;exitY=0.5;exitDx=0;exitDy=0;entryX=1;entryY=0.25;entryDx=0;entryDy=0;" edge="1" parent="1" source="7XRd1GeePD71VBHBvDXW-16" target="7XRd1GeePD71VBHBvDXW-11">
          <mxGeometry relative="1" as="geometry" />
        </mxCell>
        <mxCell id="7XRd1GeePD71VBHBvDXW-16" value="H Table" style="rounded=0;whiteSpace=wrap;html=1;fontStyle=1" vertex="1" parent="1">
          <mxGeometry x="360" y="470" width="120" height="50" as="geometry" />
        </mxCell>
        <mxCell id="7XRd1GeePD71VBHBvDXW-23" style="edgeStyle=orthogonalEdgeStyle;rounded=0;orthogonalLoop=1;jettySize=auto;html=1;exitX=0;exitY=0.5;exitDx=0;exitDy=0;entryX=1;entryY=0.25;entryDx=0;entryDy=0;" edge="1" parent="1" source="7XRd1GeePD71VBHBvDXW-17" target="7XRd1GeePD71VBHBvDXW-18">
          <mxGeometry relative="1" as="geometry" />
        </mxCell>
        <mxCell id="7XRd1GeePD71VBHBvDXW-17" value="F Table" style="rounded=0;whiteSpace=wrap;html=1;" vertex="1" parent="1">
          <mxGeometry x="360" y="535" width="120" height="50" as="geometry" />
        </mxCell>
        <mxCell id="7XRd1GeePD71VBHBvDXW-38" style="edgeStyle=orthogonalEdgeStyle;rounded=0;orthogonalLoop=1;jettySize=auto;html=1;exitX=0.25;exitY=1;exitDx=0;exitDy=0;entryX=0;entryY=0.75;entryDx=0;entryDy=0;" edge="1" parent="1" source="7XRd1GeePD71VBHBvDXW-18" target="7XRd1GeePD71VBHBvDXW-33">
          <mxGeometry relative="1" as="geometry" />
        </mxCell>
        <mxCell id="7XRd1GeePD71VBHBvDXW-18" value="DB interface" style="rounded=0;whiteSpace=wrap;html=1;" vertex="1" parent="1">
          <mxGeometry x="260" y="400" width="60" height="60" as="geometry" />
        </mxCell>
        <mxCell id="7XRd1GeePD71VBHBvDXW-27" value="delays and other scaling" style="edgeStyle=orthogonalEdgeStyle;rounded=0;orthogonalLoop=1;jettySize=auto;html=1;exitX=0;exitY=0.25;exitDx=0;exitDy=0;" edge="1" parent="1" source="7XRd1GeePD71VBHBvDXW-19">
          <mxGeometry x="-0.0038" relative="1" as="geometry">
            <mxPoint x="320" y="440" as="targetPoint" />
            <Array as="points">
              <mxPoint x="510" y="460" />
              <mxPoint x="416" y="460" />
              <mxPoint x="416" y="441" />
              <mxPoint x="320" y="441" />
            </Array>
            <mxPoint as="offset" />
          </mxGeometry>
        </mxCell>
        <mxCell id="7XRd1GeePD71VBHBvDXW-19" value="Waveform&amp;nbsp;&lt;br&gt;Generator" style="rounded=0;whiteSpace=wrap;html=1;" vertex="1" parent="1">
          <mxGeometry x="510" y="440" width="70" height="110" as="geometry" />
        </mxCell>
        <mxCell id="7XRd1GeePD71VBHBvDXW-20" value="output = sf1 * f(t) + offset (C473)&#xa;output = sf1 * f(t) + offset + sf2 * g(M1) + sf3 * h(M2) (C475)" style="text;whiteSpace=wrap;" vertex="1" parent="1">
          <mxGeometry x="-380" y="500" width="350" height="50" as="geometry" />
        </mxCell>
        <mxCell id="7XRd1GeePD71VBHBvDXW-8" value="4 or 8x&amp;nbsp;" style="edgeStyle=orthogonalEdgeStyle;rounded=0;orthogonalLoop=1;jettySize=auto;html=1;exitX=1;exitY=0.25;exitDx=0;exitDy=0;entryX=0.25;entryY=1;entryDx=0;entryDy=0;startArrow=classic;startFill=1;" edge="1" parent="1" source="7XRd1GeePD71VBHBvDXW-19" target="7XRd1GeePD71VBHBvDXW-6">
          <mxGeometry relative="1" as="geometry" />
        </mxCell>
        <mxCell id="7XRd1GeePD71VBHBvDXW-24" value="MDAT scaling factors" style="edgeStyle=orthogonalEdgeStyle;rounded=0;orthogonalLoop=1;jettySize=auto;html=1;exitX=1;exitY=0.25;exitDx=0;exitDy=0;entryX=0.5;entryY=1;entryDx=0;entryDy=0;" edge="1" parent="1" source="7XRd1GeePD71VBHBvDXW-14" target="7XRd1GeePD71VBHBvDXW-19">
          <mxGeometry x="0.1707" relative="1" as="geometry">
            <mxPoint as="offset" />
          </mxGeometry>
        </mxCell>
        <UserObject label="https://www-bd.fnal.gov/controls/camac_modules/c473.pdf&#xa;&#xa;Necessary functions: &#xa;&#xa;Offsets&#xa;TCLK trigger&#xa;Overflow errors&#xa;&#xa;Do these control kicker?  Then they would need beam synch clocks&#xa;&#xa;C463 takes permit directly&#xa;&#xa;&#xa;" link="https://www-bd.fnal.gov/controls/camac_modules/c473.pdf" id="7XRd1GeePD71VBHBvDXW-25">
          <mxCell style="text;whiteSpace=wrap;" vertex="1" parent="1">
            <mxGeometry x="-380" y="585" width="350" height="50" as="geometry" />
          </mxCell>
        </UserObject>
        <mxCell id="7XRd1GeePD71VBHBvDXW-26" value="TCLK for start of ramp and abort" style="edgeStyle=orthogonalEdgeStyle;rounded=0;orthogonalLoop=1;jettySize=auto;html=1;exitX=1;exitY=0.5;exitDx=0;exitDy=0;entryX=0.75;entryY=1;entryDx=0;entryDy=0;" edge="1" parent="1">
          <mxGeometry x="0.2397" relative="1" as="geometry">
            <mxPoint x="80" y="614.9999999999998" as="sourcePoint" />
            <mxPoint x="562.5" y="550" as="targetPoint" />
            <mxPoint as="offset" />
          </mxGeometry>
        </mxCell>
        <mxCell id="7XRd1GeePD71VBHBvDXW-28" value="Magnet Thing?" style="swimlane;horizontal=0;whiteSpace=wrap;html=1;" vertex="1" parent="1">
          <mxGeometry x="-330" y="90" width="200" height="200" as="geometry" />
        </mxCell>
        <mxCell id="7XRd1GeePD71VBHBvDXW-30" value="Viking" style="shape=flexArrow;endArrow=classic;startArrow=classic;html=1;rounded=0;" edge="1" parent="1">
          <mxGeometry width="100" height="100" relative="1" as="geometry">
            <mxPoint x="-130" y="190" as="sourcePoint" />
            <mxPoint x="-40" y="190" as="targetPoint" />
          </mxGeometry>
        </mxCell>
        <mxCell id="7XRd1GeePD71VBHBvDXW-32" value="adapter" style="rounded=0;whiteSpace=wrap;html=1;" vertex="1" parent="1">
          <mxGeometry x="-40" y="140" width="60" height="130" as="geometry" />
        </mxCell>
        <mxCell id="7XRd1GeePD71VBHBvDXW-36" value="Status/&lt;br&gt;current readback/&lt;br&gt;Analog bias" style="edgeStyle=orthogonalEdgeStyle;rounded=0;orthogonalLoop=1;jettySize=auto;html=1;exitX=0;exitY=0.25;exitDx=0;exitDy=0;entryX=0.75;entryY=1;entryDx=0;entryDy=0;startArrow=classic;startFill=1;" edge="1" parent="1" source="7XRd1GeePD71VBHBvDXW-33" target="7XRd1GeePD71VBHBvDXW-37">
          <mxGeometry x="-0.4348" relative="1" as="geometry">
            <mxPoint as="offset" />
          </mxGeometry>
        </mxCell>
        <mxCell id="7XRd1GeePD71VBHBvDXW-33" value="Digital&lt;br&gt;IO" style="rounded=0;whiteSpace=wrap;html=1;" vertex="1" parent="1">
          <mxGeometry x="530" y="650" width="90" height="80" as="geometry" />
        </mxCell>
        <mxCell id="7XRd1GeePD71VBHBvDXW-34" value="Single Ended&amp;nbsp;&lt;br&gt;LVDS" style="edgeStyle=orthogonalEdgeStyle;rounded=0;orthogonalLoop=1;jettySize=auto;html=1;exitX=0.5;exitY=1;exitDx=0;exitDy=0;entryX=1;entryY=0.25;entryDx=0;entryDy=0;startArrow=classic;startFill=1;" edge="1" parent="1" source="7XRd1GeePD71VBHBvDXW-6" target="7XRd1GeePD71VBHBvDXW-33">
          <mxGeometry relative="1" as="geometry" />
        </mxCell>
        <mxCell id="7XRd1GeePD71VBHBvDXW-37" value="DAQ" style="rounded=0;whiteSpace=wrap;html=1;" vertex="1" parent="1">
          <mxGeometry x="150" y="510" width="100" height="60" as="geometry" />
        </mxCell>
        <mxCell id="7XRd1GeePD71VBHBvDXW-40" value="Abort Interface" style="rounded=0;whiteSpace=wrap;html=1;" vertex="1" parent="1">
          <mxGeometry x="130" y="680" width="120" height="60" as="geometry" />
        </mxCell>
        <mxCell id="7XRd1GeePD71VBHBvDXW-41" style="edgeStyle=orthogonalEdgeStyle;rounded=0;orthogonalLoop=1;jettySize=auto;html=1;exitX=1;exitY=0.75;exitDx=0;exitDy=0;entryX=0.5;entryY=0;entryDx=0;entryDy=0;" edge="1" parent="1" source="7XRd1GeePD71VBHBvDXW-14" target="7XRd1GeePD71VBHBvDXW-40">
          <mxGeometry relative="1" as="geometry" />
        </mxCell>
      </root>
    </mxGraphModel>
  </diagram>
</mxfile>
